<svg xmlns="http://www.w3.org/2000/svg"  style="display: none;">
    <symbol id="settingsIcon"  viewBox="0 0 50 50"  fill="currentColor">
        <path d="M 22.205078 2 A 1.0001 1.0001 0 0 0 21.21875 2.8378906 L 20.246094 8.7929688 C 19.076509 9.1331971 17.961243 9.5922728 16.910156 10.164062 L 11.996094 6.6542969 A 1.0001 1.0001 0 0 0 10.708984 6.7597656 L 6.8183594 10.646484 A 1.0001 1.0001 0 0 0 6.7070312 11.927734 L 10.164062 16.873047 C 9.583454 17.930271 9.1142098 19.051824 8.765625 20.232422 L 2.8359375 21.21875 A 1.0001 1.0001 0 0 0 2.0019531 22.205078 L 2.0019531 27.705078 A 1.0001 1.0001 0 0 0 2.8261719 28.691406 L 8.7597656 29.742188 C 9.1064607 30.920739 9.5727226 32.043065 10.154297 33.101562 L 6.6542969 37.998047 A 1.0001 1.0001 0 0 0 6.7597656 39.285156 L 10.648438 43.175781 A 1.0001 1.0001 0 0 0 11.927734 43.289062 L 16.882812 39.820312 C 17.936999 40.39548 19.054994 40.857928 20.228516 41.201172 L 21.21875 47.164062 A 1.0001 1.0001 0 0 0 22.205078 48 L 27.705078 48 A 1.0001 1.0001 0 0 0 28.691406 47.173828 L 29.751953 41.1875 C 30.920633 40.838997 32.033372 40.369697 33.082031 39.791016 L 38.070312 43.291016 A 1.0001 1.0001 0 0 0 39.351562 43.179688 L 43.240234 39.287109 A 1.0001 1.0001 0 0 0 43.34375 37.996094 L 39.787109 33.058594 C 40.355783 32.014958 40.813915 30.908875 41.154297 29.748047 L 47.171875 28.693359 A 1.0001 1.0001 0 0 0 47.998047 27.707031 L 47.998047 22.207031 A 1.0001 1.0001 0 0 0 47.160156 21.220703 L 41.152344 20.238281 C 40.80968 19.078827 40.350281 17.974723 39.78125 16.931641 L 43.289062 11.933594 A 1.0001 1.0001 0 0 0 43.177734 10.652344 L 39.287109 6.7636719 A 1.0001 1.0001 0 0 0 37.996094 6.6601562 L 33.072266 10.201172 C 32.023186 9.6248101 30.909713 9.1579916 29.738281 8.8125 L 28.691406 2.828125 A 1.0001 1.0001 0 0 0 27.705078 2 L 22.205078 2 z M 23.056641 4 L 26.865234 4 L 27.861328 9.6855469 A 1.0001 1.0001 0 0 0 28.603516 10.484375 C 30.066026 10.848832 31.439607 11.426549 32.693359 12.185547 A 1.0001 1.0001 0 0 0 33.794922 12.142578 L 38.474609 8.7792969 L 41.167969 11.472656 L 37.835938 16.220703 A 1.0001 1.0001 0 0 0 37.796875 17.310547 C 38.548366 18.561471 39.118333 19.926379 39.482422 21.380859 A 1.0001 1.0001 0 0 0 40.291016 22.125 L 45.998047 23.058594 L 45.998047 26.867188 L 40.279297 27.871094 A 1.0001 1.0001 0 0 0 39.482422 28.617188 C 39.122545 30.069817 38.552234 31.434687 37.800781 32.685547 A 1.0001 1.0001 0 0 0 37.845703 33.785156 L 41.224609 38.474609 L 38.53125 41.169922 L 33.791016 37.84375 A 1.0001 1.0001 0 0 0 32.697266 37.808594 C 31.44975 38.567585 30.074755 39.148028 28.617188 39.517578 A 1.0001 1.0001 0 0 0 27.876953 40.3125 L 26.867188 46 L 23.052734 46 L 22.111328 40.337891 A 1.0001 1.0001 0 0 0 21.365234 39.53125 C 19.90185 39.170557 18.522094 38.59371 17.259766 37.835938 A 1.0001 1.0001 0 0 0 16.171875 37.875 L 11.46875 41.169922 L 8.7734375 38.470703 L 12.097656 33.824219 A 1.0001 1.0001 0 0 0 12.138672 32.724609 C 11.372652 31.458855 10.793319 30.079213 10.427734 28.609375 A 1.0001 1.0001 0 0 0 9.6328125 27.867188 L 4.0019531 26.867188 L 4.0019531 23.052734 L 9.6289062 22.117188 A 1.0001 1.0001 0 0 0 10.435547 21.373047 C 10.804273 19.898143 11.383325 18.518729 12.146484 17.255859 A 1.0001 1.0001 0 0 0 12.111328 16.164062 L 8.8261719 11.46875 L 11.523438 8.7734375 L 16.185547 12.105469 A 1.0001 1.0001 0 0 0 17.28125 12.148438 C 18.536908 11.394293 19.919867 10.822081 21.384766 10.462891 A 1.0001 1.0001 0 0 0 22.132812 9.6523438 L 23.056641 4 z M 25 17 C 20.593567 17 17 20.593567 17 25 C 17 29.406433 20.593567 33 25 33 C 29.406433 33 33 29.406433 33 25 C 33 20.593567 29.406433 17 25 17 z M 25 19 C 28.325553 19 31 21.674447 31 25 C 31 28.325553 28.325553 31 25 31 C 21.674447 31 19 28.325553 19 25 C 19 21.674447 21.674447 19 25 19 z"  fill="currentColor"/>
    </symbol>
    <symbol id="generateIcon" viewBox="0 0 250 250" stroke="currentColor" fill="none">
        <path d="M 108 108 H 52 V 52 H 108 Z M 204 108 H 148 V 52 h 56 Z M 108 204 H 52 V 148 h 56 Z M 204 204 H 148 V 148 h 56 Z" stroke-width="10"/>
    </symbol>
    <symbol id="nextStepIcon" viewBox="0 0 25 25" stroke="currentColor" fill="none">
        <path d="M 19 6 V 18 M 5 18 L 5 6 L 15 12 L 5 18 Z" />
    </symbol>
    <symbol id="playIcon" viewBox="0 0 25 25" stroke="currentColor" fill="none">
        <path d="M 5 18 L 5 6 L 15 12 Z" />
    </symbol>
    <symbol id="pauseIcon" viewBox="0 0 25 25" stroke="currentColor" fill="none">
        <path d="M 5 18 L 5 6 L 10 6 L 10 18 Z M 15 18 L 15 6 L 20 6 L 20 18 Z" />
    </symbol>
    <symbol id="worldSettings" viewBox="0 0 512 512" fill="currentColor">
        <path d="M93.8,114.6c-4.7,1.1-1.7,0.9-5.6,1.4C71.5,119.6,83.9,122.8,93.8,114.6z M387.5,121.3c1.2-0.8,5.4-4.9-7.7-8.9
	c0.8,4.1-2.7,3.7-2.7,6c9.7,8.8,13.7,24.1,26.1,27.3C405.6,134.7,392.2,129.3,387.5,121.3z M84.9,111.4c1.5,8.9,8.2-9.4,8.3-15.9
	c-2.6,1.5-5.2,3-7.9,4.2c6.3,3.2,0.8,6.6-6,11.7C65.5,128.6,92.2,98,84.9,111.4z M256,0C114.6,0,0,114.6,0,256
	c0,141.3,114.6,256,256,256c141.4,0,256-114.7,256-256C512,114.6,397.4,0,256,0z M262.8,85.8l1.2,0.4c-4.8,6.2,25,24.3,3.6,25.8
	c-20,5.7,8.4-5.2-7.1-3.3C268.7,97.3,254,97.1,262.8,85.8z M141.4,102.2c-7.2-6-29.8,8.2-21.9,4.8c19.6-7.7,1.3,0.8,5.9,10
	c-4.2,8.7-1.4-8.6-11.8,1.7c-7.5,1.7-25.9,18.7-23.6,13.5c-0.6,8.1-21.9,17.7-24.8,31.2c-7,18.7-1.7-0.7-3-8
	c-10-12.7-28.2,21.5-22.8,35c9.1-16,8.4-1.7,1.8,5.4c6.7,12.3-6.1,28.3,6.6,37.4c5.6,1.3,16.8-18.8,11.9,2.1
	c3.4-18.1,9.4,4.3,19.1-0.7c0.6,9.5,6.5,5.1,7.8,16.6c16.2-1.2,31,26.2,11.7,31.4c2.9-0.8,8.6,4.3,15.2,0.4
	c11.2,8.9,40.7,10,41.5,32c-20.3,9.7-5,36.3-22.6,45.8c-20.2-3-6.9,24.9-15.4,21.7c3.4,20.1-20.4-2.6-11.2,8.5
	c16.9,10.4-7.4,8.3,0.2,15.9c-8.5-1.8,5.3,15.8,7.6,22.3c12.2,19.8-10.5-4.4-17.2-11c-6.4-12.8-21.5-37.3-25.7-57.4
	c-2.4-29.2-25-48.8-30.2-77.3c-5.2-15.9,14.3-41.4,3.8-50.3c-9.1-7.1-5.4-31.4-10.8-44.2c13.5-58.5,56.4-107.8,107.9-137
	c-5.3,3.9,30.3-10.1,26.2-6.7c-1.1,2.5,20.8-9.5,34-11.3c-1.4,0.2-34.3,12-25.2,10.4c-14.1,6.9-1.4,3,5.6-0.5
	c-14,10.3-24.8,7.4-40.7,16.5c-16,4.2-12.7,20.8-24.1,29.1c6.7,1.2,23.5-17.3,33.3-23.8c22.5-10.9-11.4,19.8,10,6.6
	c-7.2,6.7-5.7,17.4-10.1,20.4C148.2,92.1,159.1,97.9,141.4,102.2z M176.4,56.2c-2.3,3.1-5.5,9.8-7.4,5.7c-2.6,1.3-3.6,6.9-8.5,2.4
	c2.9-2.1,5.9-7.1,0.2-4c2.6-2.8,25.8-10.7,24.5-13.7c4.1-2.6,3.7-3.9-1-2.3c-2.4-0.8,5.7-7.6,16.5-8.5c1.5,0,2.1,1-0.6,0.7
	c-16.3,5-9.3,3.6,1.7,0c-4.2,2.4-7.1,3.1-7.8,4.2c11-4-0.6,2.9,1.9,2.4c-3.1,1.6,0.5,2.1-5.5,4.4c1.1-0.9-9.8,6.5-3.3,4.3
	C180.8,57.8,178,57.9,176.4,56.2z M186,70.5c0.2-9.6,14-15.7,12.3-16.2c17-8-5.9,0.3,7.5-6.9c5-0.5,15.6-16.5,30.3-17.5
	c16.2-4.9,8.7,0.3,20.7-4.3l-2.4,2c-2.1,0.3,0.5,4-7.1,9.6c-0.8,8.7-14.5,4.7-7.7,14c-4.4-6.3-11-0.2-2.7,0.4
	c-8.9,6.8-29.6,8-39.5,19.3C191,80.1,185.1,77.2,186,70.5z M257.1,102.5c-6.8,16.4-13.4-2.4-1.4-5.4
	C258.7,98.7,259.9,99.2,257.1,102.5z M231.5,69.7c-2-7.4-0.4-3.5,11.5-7C251.2,68.6,235.7,72.5,231.5,69.7z M417.7,363.2
	c-9.4-16.2,11.4-31.2,18.4-44.8C435.2,334.3,433.2,350,417.7,363.2z M453.1,178.1c-10.2,0.8-19.4,3.2-28.6-2.6
	c-21.2-23.2,3.9,26.2,10.9,6c25.2,9.6-0.4,51-16.3,46.7c-8.9-19.2-19.9-40.3-39.3-49.7c14.9,16.5,22.3,36.8,38.3,51.7
	c1.1,20.8,22.2-7.6,20.9,8.5c2,27.7-31.3,44.3-25.5,72.1c12.4,25.3-23.9,29.9-19.8,52.6c-14.6,16.3-30.2,38.3-56.4,34.8
	c0-13.8-7-25.5-8.6-39.7c-14.2-18,15-37.3-3.1-56.1c-20.9-4.7,4.3-33.5-17.2-30.8c-12.9-12.9-31.8-0.4-50.3-0.3
	c-23.2,2.2-47.1-28.5-36.8-50.2c-8.2-22.6,26-29.2,26.9-49.1c16.4-13.7,39.7-12,61.9-15.2c-1.6,15.9,15.2,16,27.9,21.3
	c7.1-17.2,29.2,2.8,44.3-8.1c5.2-25.4-14.7-10.1-26.1-18.2c-13.8-20.2,29.5-10.4,25-21c-16.8-0.1-7.3-20.7-19.2-9.2
	c10.7,1.9-1.9,10.3-1.6,0.7c-16.2-4.7-0.6,18.4-8.8,20.6c-12.5-5.2-6.6,5.9-5.3,7.6c-5.4,11.7-12-17.2-27.3-16.4
	c-15.2-13.9-6,6.3,7.2,9.6c-2.8,0.8,1.6,12.3-1.9,7.4c-10.9-15-31.6-25-43.9-6.6c-1.3,17.2-36.3,22.1-30.7,2
	c-8.2-20.8,25.4-0.6,22.3-17.2c-21.6-14.3,5.9-9.7,13.2-23.1c16.6,0.5,0.7-13.6,8.5-17.7c-0.8,15.3,12.7,12.4,23.4,9.5
	c-2.6-8.8,6.4-8.5,0.9-15.8c24.8-9.9-18.9,4.6-10.1-17.1c-10.7-7.4-4.5,16.3,0,18.8c0.3,7.3-5.9,16.3-14.4,1
	c-12.4,8.1-11.1-8.2-11.9-6.5c-1.4-6.3,9.4-6.6,9.5-17.6c-0.9-7-0.7-10.7,4.3-11.1c0.4,1,20.5,1.3,27.6,9.6
	c-19.4-3.9-2.9,3.2,5.8,7.2c-9.3-7.3,3.7,0-3.9-8.3c3,0.6-8.3-11.4,3.3-0.9c-6.3-7.5,12.3-5.3,1.3-10.9c16.1,4.5,6.6,0.4-2.9-3.7
	c-26.2-15.6,46.3,21.1,16.7,4.8c18.9,4.1-40.4-14.6-13.4-6.4c-10.3-4.5-0.3-2,9,0.9c-16.7-5.2-41.7-14.9-40.7-15.3
	c5.8,0.4,11.5,1.7,17,3.3c17.1,5.1-4.9-1.2-0.2-1.1C373.8,44,425.3,83.4,456.6,134.9c7.3,7.7,27.2,58.6,16.8,36
	c4.7,18,5.4,37.4,7.9,55.8c-5.2-5.8-11-27.2-16-39.1C463.2,192.2,460.8,181.1,453.1,178.1z"/>
    </symbol>
    <symbol id="plantIcon" viewBox="0 0 25 25" stroke="currentColor" fill="none">
        <path d="M4.44893 17.009C-0.246384 7.83762 7.34051 0.686125 19.5546 3.61245C20.416 3.81881 21.0081 4.60984 20.965 5.49452C20.5862 13.288 17.0341 17.7048 6.13252 17.9857C5.43022 18.0038 4.76908 17.6344 4.44893 17.009Z M3.99999 21C5.50005 15.5 6 12.5 12 9.99997"/>
    </symbol>
    <symbol id="herbivoreIcon" viewBox="0 0 500 500" fill="currentColor">
        <path d="M494.012,210.297c-8.533-8.533-21.333-8.533-29.867,0c-11.733,12.8-25.6,24.533-39.467,35.2
			c-5.333,4.267-9.6,7.467-13.867,8.533c-2.133,0-7.467,0-11.733,0h-2.133c16-35.2,30.933-76.8,35.2-119.467
			c1.067,0,1.067-1.067,2.133-1.067c10.667-10.667,21.333-23.467,28.8-39.467c2.133-6.4,4.267-12.8,6.4-18.133l10.667-32
			c3.2-11.733-3.2-23.467-13.867-26.667c-11.733-3.2-23.467,3.2-26.667,13.867l-9.6,28.8c-3.2-16-8.533-32-16-48
			c-5.333-10.667-17.067-14.933-27.733-9.6c-10.667,5.333-14.933,17.067-9.6,27.733c16,33.067,19.2,69.333,13.867,104.533
			c-1.067-3.2-2.133-5.333-2.133-8.533c-1.067-5.333-2.133-9.6-2.133-14.933c-1.067-11.733-10.667-20.267-22.4-19.2
			c-11.733,1.067-20.267,10.667-19.2,22.4c0,6.4,1.067,12.8,2.133,19.2c5.333,24.533,17.067,44.8,28.8,62.933
			c-21.333,60.8-55.467,112-71.467,133.333c-17.067-6.4-35.2-10.667-54.4-10.667c-19.2,0-36.267,3.2-53.333,9.6
			c-16-22.4-50.133-73.6-70.4-133.333c11.733-18.133,24.533-38.4,28.8-62.933c1.067-5.333,1.067-11.733,2.133-18.133
			c1.067-10.667-7.467-21.333-19.2-22.4c-10.667-1.067-21.333,7.467-22.4,19.2c-1.067,5.333-1.067,10.667-2.133,14.933
			c0,3.2-1.067,6.4-2.133,8.533c-4.267-35.2-2.133-71.467,13.867-104.533c5.333-10.667,1.067-22.4-9.6-27.733
			c-10.667-5.333-22.4-1.067-27.733,9.6c-7.467,14.933-12.8,30.933-16,46.933l-8.533-26.667c-4.267-11.733-16-17.067-26.667-13.867
			c-11.733,4.267-17.067,16-13.867,26.667l10.667,32c2.133,5.333,4.267,11.733,6.4,18.133c7.467,16,19.2,28.8,28.8,39.467
			c0,0,0,0,1.067,0c4.267,42.667,19.2,83.2,35.2,119.467h-2.133c-4.267,1.067-8.533,1.067-11.733,0
			c-4.267-1.067-9.6-5.333-13.867-8.533c-13.867-10.667-26.667-22.4-39.467-35.2c-8.533-8.533-21.333-8.533-29.867,0
			s-8.533,21.333,0,29.867c12.8,13.867,27.733,26.667,43.733,38.4c7.467,5.333,17.067,11.733,28.8,14.933
			c5.333,2.133,10.667,2.133,16,2.133c2.133,0,4.267,0,7.467,0l21.333-1.067c12.8,23.467,25.6,41.6,34.133,54.4
			c-39.467,28.8-66.133,76.8-66.133,131.2c0,11.733,9.6,21.333,21.333,21.333s21.333-9.6,21.333-21.333
			c0-66.133,51.2-119.467,114.133-119.467s114.133,53.333,114.133,119.467c0,11.733,9.6,21.333,21.333,21.333
			c10.667,0,20.267-9.6,19.2-21.333c0-53.333-25.6-100.267-64-130.133c8.533-12.8,21.333-32,35.2-55.467l21.333,1.067
			c2.133,0,4.267,0,7.467,0c5.333,0,10.667,0,16-2.133c11.733-2.133,21.333-8.533,28.8-14.933
			c14.933-11.733,29.867-24.533,43.733-38.4C502.545,231.63,502.545,218.83,494.012,210.297z"/>
    </symbol>
    <symbol id="carnivoreIcon" viewBox="0 0 500 500" fill="none" stroke="currentColor" stroke-width="10">
        <path d="M395.96,352.757c4.978,15.755-4.668,75.537-22.1,100.291c0-2.252-22.411-49.499-39.843-45.003
 c-17.432,4.513-10.786,45.003-23.231,51.75c-2.498-15.746-14.944-51.75-32.376-47.238c-17.423,4.494-12.445,31.491-22.41,42.733
 c-9.956-11.242-4.978-38.238-22.411-42.733c-17.423-4.513-29.878,31.491-32.366,47.238c-12.445-6.747-5.807-47.238-23.24-51.75 c-17.433-4.496-39.843,42.751-39.843,45.003c-17.432-24.754-27.079-84.536-22.101-100.291c4.978-15.746-13.986-21.462-27.388-8.999 C41.35,386.501,48.817,465.256,48.817,465.256c0,31.492,39.834,52.216,107.065,45.468C223.114,503.969,256,501.717,256,501.717 	s32.886,2.252,100.118,9.008c67.231,6.747,107.074-13.976,107.074-45.468c0,0,7.458-78.755-39.843-121.498 C409.956,331.295,390.982,337.012,395.96,352.757z M426.12,0.909C352.033,8.33,256,10.801,256,10.801S159.967,8.33,85.879,0.909 C11.791-6.512,14.527,33.065,14.527,62.734c0,0,8.424,124.889,81.408,185.483c14.762,13.704,35.676,7.413,30.188-9.901 c-5.489-17.304-19.21-126.12,0-153.318c0,2.471,17.377,54.404,36.579,49.453c19.21-4.942,19.21-49.453,32.932-56.874 c2.745,17.314,16.466,56.874,35.667,51.933c19.21-4.951,13.73-34.619,24.699-46.991c10.977,12.372,5.489,42.04,24.699,46.991 c19.202,4.942,32.932-34.619,35.668-51.933c13.721,7.422,13.721,51.933,32.931,56.874c19.201,4.951,36.579-46.982,36.579-49.453 c19.22,27.206,5.489,136.013,0,153.327c-5.479,17.304,15.426,23.595,30.188,9.892c72.984-60.594,81.409-185.483,81.409-185.483
C497.473,33.065,500.209-6.512,426.12,0.909z"/>
    </symbol>
    <symbol id="omnivoreIcon" viewBox="0 0 15 15" fill="none" stroke="currentColor">
        <path d="m 8 1 c -1.65625 0 -3 1.34375 -3 3 s 1.34375 3 3 3 s 3 -1.34375 3 -3 s -1.34375 -3 -3 -3 z m -1.5 7 c -2.492188 0 -4.5 2.007812 -4.5 4.5 v 0.5 c 0 1.109375 0.890625 2 2 2 h 8 c 1.109375 0 2 -0.890625 2 -2 v -0.5 c 0 -2.492188 -2.007812 -4.5 -4.5 -4.5 z m 0 0"/>
    </symbol>
    <symbol id="agentsSettings" viewBox="0 0 24 24" fill="none" stroke="currentColor">
        <path d="M22 20.07V12.18C22 6.57999 17.5 2 12 2C6.5 2 2 6.57999 2 12.18V20.07C2 21.33 2.74998 21.67 3.66998 20.83L4.66998 19.92C5.03998 19.58 5.64001 19.58 6.01001 19.92L8.01001 21.75C8.38001 22.09 8.97998 22.09 9.34998 21.75L11.35 19.92C11.72 19.58 12.32 19.58 12.69 19.92L14.69 21.75C15.06 22.09 15.66 22.09 16.03 21.75L18.03 19.92C18.4 19.58 19 19.58 19.37 19.92L20.37 20.83C21.25 21.67 22 21.33 22 20.07Z"/>
        <path d="M8 14C10.37 15.78 13.63 15.78 16 14"/>
        <path d="M12 11C13.1046 11 14 10.1046 14 9C14 7.89543 13.1046 7 12 7C10.8954 7 10 7.89543 10 9C10 10.1046 10.8954 11 12 11Z"/>
    </symbol>
    <symbol id="saveIcon" viewBox="0 0 25 25" fill="none" stroke="currentColor">
        <path d="M17 20.75H7C6.27065 20.75 5.57118 20.4603 5.05546 19.9445C4.53973 19.4288 4.25 18.7293 4.25 18V6C4.25 5.27065 4.53973 4.57118 5.05546 4.05546C5.57118 3.53973 6.27065 3.25 7 3.25H14.5C14.6988 3.25018 14.8895 3.32931 15.03 3.47L19.53 8C19.6707 8.14052 19.7498 8.33115 19.75 8.53V18C19.75 18.7293 19.4603 19.4288 18.9445 19.9445C18.4288 20.4603 17.7293 20.75 17 20.75ZM7 4.75C6.66848 4.75 6.35054 4.8817 6.11612 5.11612C5.8817 5.35054 5.75 5.66848 5.75 6V18C5.75 18.3315 5.8817 18.6495 6.11612 18.8839C6.35054 19.1183 6.66848 19.25 7 19.25H17C17.3315 19.25 17.6495 19.1183 17.8839 18.8839C18.1183 18.6495 18.25 18.3315 18.25 18V8.81L14.19 4.75H7Z" fill="#000000"/>
        <path d="M16.75 20H15.25V13.75H8.75V20H7.25V13.5C7.25 13.1685 7.3817 12.8505 7.61612 12.6161C7.85054 12.3817 8.16848 12.25 8.5 12.25H15.5C15.8315 12.25 16.1495 12.3817 16.3839 12.6161C16.6183 12.8505 16.75 13.1685 16.75 13.5V20Z" fill="#000000"/>
        <path d="M12.47 8.75H8.53001C8.3606 8.74869 8.19311 8.71403 8.0371 8.64799C7.88109 8.58195 7.73962 8.48582 7.62076 8.36511C7.5019 8.24439 7.40798 8.10144 7.34437 7.94443C7.28075 7.78741 7.24869 7.61941 7.25001 7.45V4H8.75001V7.25H12.25V4H13.75V7.45C13.7513 7.61941 13.7193 7.78741 13.6557 7.94443C13.592 8.10144 13.4981 8.24439 13.3793 8.36511C13.2604 8.48582 13.1189 8.58195 12.9629 8.64799C12.8069 8.71403 12.6394 8.74869 12.47 8.75Z"/>
    </symbol>
</svg>