<svg xmlns="http://www.w3.org/2000/svg"  style="display: none;">
    <symbol id="settingsIcon"  viewBox="0 0 50 50"  fill="currentColor">
        <path d="M 22.205078 2 A 1.0001 1.0001 0 0 0 21.21875 2.8378906 L 20.246094 8.7929688 C 19.076509 9.1331971 17.961243 9.5922728 16.910156 10.164062 L 11.996094 6.6542969 A 1.0001 1.0001 0 0 0 10.708984 6.7597656 L 6.8183594 10.646484 A 1.0001 1.0001 0 0 0 6.7070312 11.927734 L 10.164062 16.873047 C 9.583454 17.930271 9.1142098 19.051824 8.765625 20.232422 L 2.8359375 21.21875 A 1.0001 1.0001 0 0 0 2.0019531 22.205078 L 2.0019531 27.705078 A 1.0001 1.0001 0 0 0 2.8261719 28.691406 L 8.7597656 29.742188 C 9.1064607 30.920739 9.5727226 32.043065 10.154297 33.101562 L 6.6542969 37.998047 A 1.0001 1.0001 0 0 0 6.7597656 39.285156 L 10.648438 43.175781 A 1.0001 1.0001 0 0 0 11.927734 43.289062 L 16.882812 39.820312 C 17.936999 40.39548 19.054994 40.857928 20.228516 41.201172 L 21.21875 47.164062 A 1.0001 1.0001 0 0 0 22.205078 48 L 27.705078 48 A 1.0001 1.0001 0 0 0 28.691406 47.173828 L 29.751953 41.1875 C 30.920633 40.838997 32.033372 40.369697 33.082031 39.791016 L 38.070312 43.291016 A 1.0001 1.0001 0 0 0 39.351562 43.179688 L 43.240234 39.287109 A 1.0001 1.0001 0 0 0 43.34375 37.996094 L 39.787109 33.058594 C 40.355783 32.014958 40.813915 30.908875 41.154297 29.748047 L 47.171875 28.693359 A 1.0001 1.0001 0 0 0 47.998047 27.707031 L 47.998047 22.207031 A 1.0001 1.0001 0 0 0 47.160156 21.220703 L 41.152344 20.238281 C 40.80968 19.078827 40.350281 17.974723 39.78125 16.931641 L 43.289062 11.933594 A 1.0001 1.0001 0 0 0 43.177734 10.652344 L 39.287109 6.7636719 A 1.0001 1.0001 0 0 0 37.996094 6.6601562 L 33.072266 10.201172 C 32.023186 9.6248101 30.909713 9.1579916 29.738281 8.8125 L 28.691406 2.828125 A 1.0001 1.0001 0 0 0 27.705078 2 L 22.205078 2 z M 23.056641 4 L 26.865234 4 L 27.861328 9.6855469 A 1.0001 1.0001 0 0 0 28.603516 10.484375 C 30.066026 10.848832 31.439607 11.426549 32.693359 12.185547 A 1.0001 1.0001 0 0 0 33.794922 12.142578 L 38.474609 8.7792969 L 41.167969 11.472656 L 37.835938 16.220703 A 1.0001 1.0001 0 0 0 37.796875 17.310547 C 38.548366 18.561471 39.118333 19.926379 39.482422 21.380859 A 1.0001 1.0001 0 0 0 40.291016 22.125 L 45.998047 23.058594 L 45.998047 26.867188 L 40.279297 27.871094 A 1.0001 1.0001 0 0 0 39.482422 28.617188 C 39.122545 30.069817 38.552234 31.434687 37.800781 32.685547 A 1.0001 1.0001 0 0 0 37.845703 33.785156 L 41.224609 38.474609 L 38.53125 41.169922 L 33.791016 37.84375 A 1.0001 1.0001 0 0 0 32.697266 37.808594 C 31.44975 38.567585 30.074755 39.148028 28.617188 39.517578 A 1.0001 1.0001 0 0 0 27.876953 40.3125 L 26.867188 46 L 23.052734 46 L 22.111328 40.337891 A 1.0001 1.0001 0 0 0 21.365234 39.53125 C 19.90185 39.170557 18.522094 38.59371 17.259766 37.835938 A 1.0001 1.0001 0 0 0 16.171875 37.875 L 11.46875 41.169922 L 8.7734375 38.470703 L 12.097656 33.824219 A 1.0001 1.0001 0 0 0 12.138672 32.724609 C 11.372652 31.458855 10.793319 30.079213 10.427734 28.609375 A 1.0001 1.0001 0 0 0 9.6328125 27.867188 L 4.0019531 26.867188 L 4.0019531 23.052734 L 9.6289062 22.117188 A 1.0001 1.0001 0 0 0 10.435547 21.373047 C 10.804273 19.898143 11.383325 18.518729 12.146484 17.255859 A 1.0001 1.0001 0 0 0 12.111328 16.164062 L 8.8261719 11.46875 L 11.523438 8.7734375 L 16.185547 12.105469 A 1.0001 1.0001 0 0 0 17.28125 12.148438 C 18.536908 11.394293 19.919867 10.822081 21.384766 10.462891 A 1.0001 1.0001 0 0 0 22.132812 9.6523438 L 23.056641 4 z M 25 17 C 20.593567 17 17 20.593567 17 25 C 17 29.406433 20.593567 33 25 33 C 29.406433 33 33 29.406433 33 25 C 33 20.593567 29.406433 17 25 17 z M 25 19 C 28.325553 19 31 21.674447 31 25 C 31 28.325553 28.325553 31 25 31 C 21.674447 31 19 28.325553 19 25 C 19 21.674447 21.674447 19 25 19 z"  fill="currentColor"/>
    </symbol>
    <symbol id="generateIcon" viewBox="0 0 250 250" stroke="currentColor" fill="none">
        <path d="M 108 108 H 52 V 52 H 108 Z M 204 108 H 148 V 52 h 56 Z M 108 204 H 52 V 148 h 56 Z M 204 204 H 148 V 148 h 56 Z" stroke-width="10"/>
    </symbol>
    <symbol id="nextStepIcon" viewBox="0 0 25 25" stroke="currentColor" fill="none">
        <path d="M 19 6 V 18 M 5 18 L 5 6 L 15 12 L 5 18 Z" />
    </symbol>
    <symbol id="playIcon" viewBox="0 0 25 25" stroke="currentColor" fill="none">
        <path d="M 5 18 L 5 6 L 15 12 Z" />
    </symbol>
    <symbol id="pauseIcon" viewBox="0 0 25 25" stroke="currentColor" fill="none">
        <path d="M 5 18 L 5 6 L 10 6 L 10 18 Z M 15 18 L 15 6 L 20 6 L 20 18 Z" />
    </symbol>
    <symbol id="worldSettings" viewBox="0 0 512 512" fill="currentColor">
        <path d="M93.8,114.6c-4.7,1.1-1.7,0.9-5.6,1.4C71.5,119.6,83.9,122.8,93.8,114.6z M387.5,121.3c1.2-0.8,5.4-4.9-7.7-8.9
	c0.8,4.1-2.7,3.7-2.7,6c9.7,8.8,13.7,24.1,26.1,27.3C405.6,134.7,392.2,129.3,387.5,121.3z M84.9,111.4c1.5,8.9,8.2-9.4,8.3-15.9
	c-2.6,1.5-5.2,3-7.9,4.2c6.3,3.2,0.8,6.6-6,11.7C65.5,128.6,92.2,98,84.9,111.4z M256,0C114.6,0,0,114.6,0,256
	c0,141.3,114.6,256,256,256c141.4,0,256-114.7,256-256C512,114.6,397.4,0,256,0z M262.8,85.8l1.2,0.4c-4.8,6.2,25,24.3,3.6,25.8
	c-20,5.7,8.4-5.2-7.1-3.3C268.7,97.3,254,97.1,262.8,85.8z M141.4,102.2c-7.2-6-29.8,8.2-21.9,4.8c19.6-7.7,1.3,0.8,5.9,10
	c-4.2,8.7-1.4-8.6-11.8,1.7c-7.5,1.7-25.9,18.7-23.6,13.5c-0.6,8.1-21.9,17.7-24.8,31.2c-7,18.7-1.7-0.7-3-8
	c-10-12.7-28.2,21.5-22.8,35c9.1-16,8.4-1.7,1.8,5.4c6.7,12.3-6.1,28.3,6.6,37.4c5.6,1.3,16.8-18.8,11.9,2.1
	c3.4-18.1,9.4,4.3,19.1-0.7c0.6,9.5,6.5,5.1,7.8,16.6c16.2-1.2,31,26.2,11.7,31.4c2.9-0.8,8.6,4.3,15.2,0.4
	c11.2,8.9,40.7,10,41.5,32c-20.3,9.7-5,36.3-22.6,45.8c-20.2-3-6.9,24.9-15.4,21.7c3.4,20.1-20.4-2.6-11.2,8.5
	c16.9,10.4-7.4,8.3,0.2,15.9c-8.5-1.8,5.3,15.8,7.6,22.3c12.2,19.8-10.5-4.4-17.2-11c-6.4-12.8-21.5-37.3-25.7-57.4
	c-2.4-29.2-25-48.8-30.2-77.3c-5.2-15.9,14.3-41.4,3.8-50.3c-9.1-7.1-5.4-31.4-10.8-44.2c13.5-58.5,56.4-107.8,107.9-137
	c-5.3,3.9,30.3-10.1,26.2-6.7c-1.1,2.5,20.8-9.5,34-11.3c-1.4,0.2-34.3,12-25.2,10.4c-14.1,6.9-1.4,3,5.6-0.5
	c-14,10.3-24.8,7.4-40.7,16.5c-16,4.2-12.7,20.8-24.1,29.1c6.7,1.2,23.5-17.3,33.3-23.8c22.5-10.9-11.4,19.8,10,6.6
	c-7.2,6.7-5.7,17.4-10.1,20.4C148.2,92.1,159.1,97.9,141.4,102.2z M176.4,56.2c-2.3,3.1-5.5,9.8-7.4,5.7c-2.6,1.3-3.6,6.9-8.5,2.4
	c2.9-2.1,5.9-7.1,0.2-4c2.6-2.8,25.8-10.7,24.5-13.7c4.1-2.6,3.7-3.9-1-2.3c-2.4-0.8,5.7-7.6,16.5-8.5c1.5,0,2.1,1-0.6,0.7
	c-16.3,5-9.3,3.6,1.7,0c-4.2,2.4-7.1,3.1-7.8,4.2c11-4-0.6,2.9,1.9,2.4c-3.1,1.6,0.5,2.1-5.5,4.4c1.1-0.9-9.8,6.5-3.3,4.3
	C180.8,57.8,178,57.9,176.4,56.2z M186,70.5c0.2-9.6,14-15.7,12.3-16.2c17-8-5.9,0.3,7.5-6.9c5-0.5,15.6-16.5,30.3-17.5
	c16.2-4.9,8.7,0.3,20.7-4.3l-2.4,2c-2.1,0.3,0.5,4-7.1,9.6c-0.8,8.7-14.5,4.7-7.7,14c-4.4-6.3-11-0.2-2.7,0.4
	c-8.9,6.8-29.6,8-39.5,19.3C191,80.1,185.1,77.2,186,70.5z M257.1,102.5c-6.8,16.4-13.4-2.4-1.4-5.4
	C258.7,98.7,259.9,99.2,257.1,102.5z M231.5,69.7c-2-7.4-0.4-3.5,11.5-7C251.2,68.6,235.7,72.5,231.5,69.7z M417.7,363.2
	c-9.4-16.2,11.4-31.2,18.4-44.8C435.2,334.3,433.2,350,417.7,363.2z M453.1,178.1c-10.2,0.8-19.4,3.2-28.6-2.6
	c-21.2-23.2,3.9,26.2,10.9,6c25.2,9.6-0.4,51-16.3,46.7c-8.9-19.2-19.9-40.3-39.3-49.7c14.9,16.5,22.3,36.8,38.3,51.7
	c1.1,20.8,22.2-7.6,20.9,8.5c2,27.7-31.3,44.3-25.5,72.1c12.4,25.3-23.9,29.9-19.8,52.6c-14.6,16.3-30.2,38.3-56.4,34.8
	c0-13.8-7-25.5-8.6-39.7c-14.2-18,15-37.3-3.1-56.1c-20.9-4.7,4.3-33.5-17.2-30.8c-12.9-12.9-31.8-0.4-50.3-0.3
	c-23.2,2.2-47.1-28.5-36.8-50.2c-8.2-22.6,26-29.2,26.9-49.1c16.4-13.7,39.7-12,61.9-15.2c-1.6,15.9,15.2,16,27.9,21.3
	c7.1-17.2,29.2,2.8,44.3-8.1c5.2-25.4-14.7-10.1-26.1-18.2c-13.8-20.2,29.5-10.4,25-21c-16.8-0.1-7.3-20.7-19.2-9.2
	c10.7,1.9-1.9,10.3-1.6,0.7c-16.2-4.7-0.6,18.4-8.8,20.6c-12.5-5.2-6.6,5.9-5.3,7.6c-5.4,11.7-12-17.2-27.3-16.4
	c-15.2-13.9-6,6.3,7.2,9.6c-2.8,0.8,1.6,12.3-1.9,7.4c-10.9-15-31.6-25-43.9-6.6c-1.3,17.2-36.3,22.1-30.7,2
	c-8.2-20.8,25.4-0.6,22.3-17.2c-21.6-14.3,5.9-9.7,13.2-23.1c16.6,0.5,0.7-13.6,8.5-17.7c-0.8,15.3,12.7,12.4,23.4,9.5
	c-2.6-8.8,6.4-8.5,0.9-15.8c24.8-9.9-18.9,4.6-10.1-17.1c-10.7-7.4-4.5,16.3,0,18.8c0.3,7.3-5.9,16.3-14.4,1
	c-12.4,8.1-11.1-8.2-11.9-6.5c-1.4-6.3,9.4-6.6,9.5-17.6c-0.9-7-0.7-10.7,4.3-11.1c0.4,1,20.5,1.3,27.6,9.6
	c-19.4-3.9-2.9,3.2,5.8,7.2c-9.3-7.3,3.7,0-3.9-8.3c3,0.6-8.3-11.4,3.3-0.9c-6.3-7.5,12.3-5.3,1.3-10.9c16.1,4.5,6.6,0.4-2.9-3.7
	c-26.2-15.6,46.3,21.1,16.7,4.8c18.9,4.1-40.4-14.6-13.4-6.4c-10.3-4.5-0.3-2,9,0.9c-16.7-5.2-41.7-14.9-40.7-15.3
	c5.8,0.4,11.5,1.7,17,3.3c17.1,5.1-4.9-1.2-0.2-1.1C373.8,44,425.3,83.4,456.6,134.9c7.3,7.7,27.2,58.6,16.8,36
	c4.7,18,5.4,37.4,7.9,55.8c-5.2-5.8-11-27.2-16-39.1C463.2,192.2,460.8,181.1,453.1,178.1z"/>
    </symbol>
    <symbol id="plantIcon" viewBox="0 0 25 25" stroke="currentColor" fill="none">
        <path d="M4.44893 17.009C-0.246384 7.83762 7.34051 0.686125 19.5546 3.61245C20.416 3.81881 21.0081 4.60984 20.965 5.49452C20.5862 13.288 17.0341 17.7048 6.13252 17.9857C5.43022 18.0038 4.76908 17.6344 4.44893 17.009Z M3.99999 21C5.50005 15.5 6 12.5 12 9.99997"/>
    </symbol>
    <symbol id="herbivoreIcon" viewBox="0 0 500 500" fill="currentColor">
        <path d="M494.012,210.297c-8.533-8.533-21.333-8.533-29.867,0c-11.733,12.8-25.6,24.533-39.467,35.2
			c-5.333,4.267-9.6,7.467-13.867,8.533c-2.133,0-7.467,0-11.733,0h-2.133c16-35.2,30.933-76.8,35.2-119.467
			c1.067,0,1.067-1.067,2.133-1.067c10.667-10.667,21.333-23.467,28.8-39.467c2.133-6.4,4.267-12.8,6.4-18.133l10.667-32
			c3.2-11.733-3.2-23.467-13.867-26.667c-11.733-3.2-23.467,3.2-26.667,13.867l-9.6,28.8c-3.2-16-8.533-32-16-48
			c-5.333-10.667-17.067-14.933-27.733-9.6c-10.667,5.333-14.933,17.067-9.6,27.733c16,33.067,19.2,69.333,13.867,104.533
			c-1.067-3.2-2.133-5.333-2.133-8.533c-1.067-5.333-2.133-9.6-2.133-14.933c-1.067-11.733-10.667-20.267-22.4-19.2
			c-11.733,1.067-20.267,10.667-19.2,22.4c0,6.4,1.067,12.8,2.133,19.2c5.333,24.533,17.067,44.8,28.8,62.933
			c-21.333,60.8-55.467,112-71.467,133.333c-17.067-6.4-35.2-10.667-54.4-10.667c-19.2,0-36.267,3.2-53.333,9.6
			c-16-22.4-50.133-73.6-70.4-133.333c11.733-18.133,24.533-38.4,28.8-62.933c1.067-5.333,1.067-11.733,2.133-18.133
			c1.067-10.667-7.467-21.333-19.2-22.4c-10.667-1.067-21.333,7.467-22.4,19.2c-1.067,5.333-1.067,10.667-2.133,14.933
			c0,3.2-1.067,6.4-2.133,8.533c-4.267-35.2-2.133-71.467,13.867-104.533c5.333-10.667,1.067-22.4-9.6-27.733
			c-10.667-5.333-22.4-1.067-27.733,9.6c-7.467,14.933-12.8,30.933-16,46.933l-8.533-26.667c-4.267-11.733-16-17.067-26.667-13.867
			c-11.733,4.267-17.067,16-13.867,26.667l10.667,32c2.133,5.333,4.267,11.733,6.4,18.133c7.467,16,19.2,28.8,28.8,39.467
			c0,0,0,0,1.067,0c4.267,42.667,19.2,83.2,35.2,119.467h-2.133c-4.267,1.067-8.533,1.067-11.733,0
			c-4.267-1.067-9.6-5.333-13.867-8.533c-13.867-10.667-26.667-22.4-39.467-35.2c-8.533-8.533-21.333-8.533-29.867,0
			s-8.533,21.333,0,29.867c12.8,13.867,27.733,26.667,43.733,38.4c7.467,5.333,17.067,11.733,28.8,14.933
			c5.333,2.133,10.667,2.133,16,2.133c2.133,0,4.267,0,7.467,0l21.333-1.067c12.8,23.467,25.6,41.6,34.133,54.4
			c-39.467,28.8-66.133,76.8-66.133,131.2c0,11.733,9.6,21.333,21.333,21.333s21.333-9.6,21.333-21.333
			c0-66.133,51.2-119.467,114.133-119.467s114.133,53.333,114.133,119.467c0,11.733,9.6,21.333,21.333,21.333
			c10.667,0,20.267-9.6,19.2-21.333c0-53.333-25.6-100.267-64-130.133c8.533-12.8,21.333-32,35.2-55.467l21.333,1.067
			c2.133,0,4.267,0,7.467,0c5.333,0,10.667,0,16-2.133c11.733-2.133,21.333-8.533,28.8-14.933
			c14.933-11.733,29.867-24.533,43.733-38.4C502.545,231.63,502.545,218.83,494.012,210.297z"/>
    </symbol>
    <symbol id="carnivoreIcon" viewBox="0 0 500 500" fill="none" stroke="currentColor" stroke-width="10">
        <path d="M395.96,352.757c4.978,15.755-4.668,75.537-22.1,100.291c0-2.252-22.411-49.499-39.843-45.003
 c-17.432,4.513-10.786,45.003-23.231,51.75c-2.498-15.746-14.944-51.75-32.376-47.238c-17.423,4.494-12.445,31.491-22.41,42.733
 c-9.956-11.242-4.978-38.238-22.411-42.733c-17.423-4.513-29.878,31.491-32.366,47.238c-12.445-6.747-5.807-47.238-23.24-51.75 c-17.433-4.496-39.843,42.751-39.843,45.003c-17.432-24.754-27.079-84.536-22.101-100.291c4.978-15.746-13.986-21.462-27.388-8.999 C41.35,386.501,48.817,465.256,48.817,465.256c0,31.492,39.834,52.216,107.065,45.468C223.114,503.969,256,501.717,256,501.717 	s32.886,2.252,100.118,9.008c67.231,6.747,107.074-13.976,107.074-45.468c0,0,7.458-78.755-39.843-121.498 C409.956,331.295,390.982,337.012,395.96,352.757z M426.12,0.909C352.033,8.33,256,10.801,256,10.801S159.967,8.33,85.879,0.909 C11.791-6.512,14.527,33.065,14.527,62.734c0,0,8.424,124.889,81.408,185.483c14.762,13.704,35.676,7.413,30.188-9.901 c-5.489-17.304-19.21-126.12,0-153.318c0,2.471,17.377,54.404,36.579,49.453c19.21-4.942,19.21-49.453,32.932-56.874 c2.745,17.314,16.466,56.874,35.667,51.933c19.21-4.951,13.73-34.619,24.699-46.991c10.977,12.372,5.489,42.04,24.699,46.991 c19.202,4.942,32.932-34.619,35.668-51.933c13.721,7.422,13.721,51.933,32.931,56.874c19.201,4.951,36.579-46.982,36.579-49.453 c19.22,27.206,5.489,136.013,0,153.327c-5.479,17.304,15.426,23.595,30.188,9.892c72.984-60.594,81.409-185.483,81.409-185.483
C497.473,33.065,500.209-6.512,426.12,0.909z"/>
    </symbol>
    <symbol id="omnivoreIcon" viewBox="0 0 15 15" fill="none" stroke="currentColor">
        <path d="m 8 1 c -1.65625 0 -3 1.34375 -3 3 s 1.34375 3 3 3 s 3 -1.34375 3 -3 s -1.34375 -3 -3 -3 z m -1.5 7 c -2.492188 0 -4.5 2.007812 -4.5 4.5 v 0.5 c 0 1.109375 0.890625 2 2 2 h 8 c 1.109375 0 2 -0.890625 2 -2 v -0.5 c 0 -2.492188 -2.007812 -4.5 -4.5 -4.5 z m 0 0"/>
    </symbol>
    <symbol id="agentsSettings" viewBox="0 0 24 24" fill="none" stroke="currentColor">
        <path d="M22 20.07V12.18C22 6.57999 17.5 2 12 2C6.5 2 2 6.57999 2 12.18V20.07C2 21.33 2.74998 21.67 3.66998 20.83L4.66998 19.92C5.03998 19.58 5.64001 19.58 6.01001 19.92L8.01001 21.75C8.38001 22.09 8.97998 22.09 9.34998 21.75L11.35 19.92C11.72 19.58 12.32 19.58 12.69 19.92L14.69 21.75C15.06 22.09 15.66 22.09 16.03 21.75L18.03 19.92C18.4 19.58 19 19.58 19.37 19.92L20.37 20.83C21.25 21.67 22 21.33 22 20.07Z"/>
        <path d="M8 14C10.37 15.78 13.63 15.78 16 14"/>
        <path d="M12 11C13.1046 11 14 10.1046 14 9C14 7.89543 13.1046 7 12 7C10.8954 7 10 7.89543 10 9C10 10.1046 10.8954 11 12 11Z"/>
    </symbol>
    <symbol id="saveIcon" viewBox="0 0 25 25" fill="none" stroke="currentColor">
        <path d="M17 20.75H7C6.27065 20.75 5.57118 20.4603 5.05546 19.9445C4.53973 19.4288 4.25 18.7293 4.25 18V6C4.25 5.27065 4.53973 4.57118 5.05546 4.05546C5.57118 3.53973 6.27065 3.25 7 3.25H14.5C14.6988 3.25018 14.8895 3.32931 15.03 3.47L19.53 8C19.6707 8.14052 19.7498 8.33115 19.75 8.53V18C19.75 18.7293 19.4603 19.4288 18.9445 19.9445C18.4288 20.4603 17.7293 20.75 17 20.75ZM7 4.75C6.66848 4.75 6.35054 4.8817 6.11612 5.11612C5.8817 5.35054 5.75 5.66848 5.75 6V18C5.75 18.3315 5.8817 18.6495 6.11612 18.8839C6.35054 19.1183 6.66848 19.25 7 19.25H17C17.3315 19.25 17.6495 19.1183 17.8839 18.8839C18.1183 18.6495 18.25 18.3315 18.25 18V8.81L14.19 4.75H7Z" fill="#000000"/>
        <path d="M16.75 20H15.25V13.75H8.75V20H7.25V13.5C7.25 13.1685 7.3817 12.8505 7.61612 12.6161C7.85054 12.3817 8.16848 12.25 8.5 12.25H15.5C15.8315 12.25 16.1495 12.3817 16.3839 12.6161C16.6183 12.8505 16.75 13.1685 16.75 13.5V20Z" fill="#000000"/>
        <path d="M12.47 8.75H8.53001C8.3606 8.74869 8.19311 8.71403 8.0371 8.64799C7.88109 8.58195 7.73962 8.48582 7.62076 8.36511C7.5019 8.24439 7.40798 8.10144 7.34437 7.94443C7.28075 7.78741 7.24869 7.61941 7.25001 7.45V4H8.75001V7.25H12.25V4H13.75V7.45C13.7513 7.61941 13.7193 7.78741 13.6557 7.94443C13.592 8.10144 13.4981 8.24439 13.3793 8.36511C13.2604 8.48582 13.1189 8.58195 12.9629 8.64799C12.8069 8.71403 12.6394 8.74869 12.47 8.75Z"/>
    </symbol>
    <symbol id="brainIcon" viewBox="0 0 512 512" fill="currentColor" stroke="none">
        <path d="M345.934,233.32c-3.329-1.882-7.555-0.71-9.438,2.619c-1.882,3.329-0.71,7.565,2.624,9.447
		c5.114,2.912,8.235,6.161,10.298,9.518c-8.54,3-16.11,4.234-22.799,4.234c-9.789-0.009-17.796-2.593-24.548-6.552
		c-6.734-3.968-12.18-9.393-16.309-15.022c-6.806-9.278-15.661-17.542-26.098-23.571c-10.422-6.011-22.479-9.767-35.419-9.767
		c-11.347-0.008-23.305,2.913-35.153,9.42c-4.844,2.655-9.043,5.762-12.7,9.153c-14.414,5.549-26.834,7.546-37.341,7.546
		c-14.969,0-26.151-4.022-33.627-7.973c-3.733-1.971-6.525-3.933-8.332-5.353c-0.906-0.719-1.566-1.288-1.976-1.66l-0.426-0.409
		l-0.067-0.062H94.62c-2.655-2.726-7.023-2.796-9.771-0.151c-2.752,2.654-2.832,7.04-0.177,9.792
		c0.386,0.391,5.149,5.265,14.267,10.095c3.991,2.113,8.883,4.19,14.534,5.886c-1.501,2.113-3.551,5.202-5.784,9.135
		c-4.293,7.573-9.225,18.201-11.738,30.737c-0.75,3.746,1.683,7.396,5.434,8.15c3.751,0.745,7.404-1.688,8.15-5.442
		c2.108-10.556,6.414-19.94,10.205-26.608c1.891-3.338,3.645-5.993,4.906-7.778c0.63-0.896,1.136-1.58,1.474-2.024
		c0.168-0.214,0.297-0.382,0.373-0.48l0.08-0.098l0.009-0.009l0.004-0.009c0.639-0.781,1.066-1.66,1.309-2.583
		c3.525,0.434,7.227,0.701,11.156,0.692c7.284,0.009,15.261-0.852,23.851-2.805c-4.258,9.18-6.01,18.76-6.015,27.54
		c0.017,8.843,1.7,16.869,4.701,23.261c1.637,3.463,5.77,4.936,9.228,3.303c3.458-1.634,4.936-5.771,3.298-9.224v-0.009
		c-1.926-4.013-3.392-10.334-3.369-17.331c-0.005-7.546,1.624-15.856,5.531-23.438c3.928-7.582,10.028-14.498,19.479-19.701
		c9.974-5.46,19.496-7.698,28.49-7.706c10.24,0,19.887,2.957,28.498,7.91c8.603,4.963,16.119,11.95,21.844,19.762
		c5.038,6.872,11.778,13.655,20.452,18.769c8.656,5.114,19.284,8.478,31.58,8.469c8.136,0,16.975-1.474,26.466-4.706l0.022,0.497
		c0,3.392-0.528,6.481-1.056,8.665c-0.262,1.092-0.524,1.954-0.706,2.513c-0.093,0.275-0.164,0.479-0.208,0.594l-0.04,0.107
		l-0.004,0.017h0.004c-1.403,3.543,0.324,7.556,3.866,8.976c3.551,1.421,7.586-0.311,9.007-3.862
		c0.177-0.497,2.966-7.413,2.992-17.011c0-5.505-0.964-11.968-4.164-18.35C359.62,244.054,354.133,237.928,345.934,233.32z"/>
        <path d="M361.382,187.056c-19.043,0-34.336-7.014-44.914-16.194c-5.278-4.581-9.336-9.704-12.003-14.604
		c-2.681-4.91-3.911-9.58-3.893-13.078c0-3.827-3.103-6.925-6.929-6.925c-3.826,0-6.926,3.098-6.926,6.925
		c0.018,6.516,2.055,13.193,5.58,19.692c3.689,6.766,9.078,13.335,15.928,19.123c-1.381,1.918-3.286,4.387-5.718,7.032
		c-5.278,5.762-12.886,12.145-21.969,15.368c-3.604,1.287-5.482,5.256-4.194,8.851c1.287,3.605,5.252,5.488,8.852,4.199
		c12.327-4.43,21.555-12.508,27.815-19.381c2.788-3.072,4.958-5.877,6.561-8.123c11.462,6.614,25.618,10.982,41.812,10.973
		c3.822,0,6.93-3.098,6.93-6.925C368.311,190.164,365.204,187.056,361.382,187.056z"/>
        <path d="M315.197,322.537c-12.961,0-23.26-2.504-31.535-6.33c-12.385-5.753-20.42-14.595-25.476-23.412
		c-2.521-4.395-4.261-8.771-5.358-12.616c-1.101-3.826-1.532-7.182-1.523-9.215c0-3.826-3.098-6.926-6.925-6.926
		c-3.831,0-6.929,3.099-6.929,6.926c0,2.495,0.297,5.256,0.906,8.292c1.056,5.291,3.067,11.409,6.326,17.712
		c4.888,9.447,12.647,19.354,24.242,26.884c2.903,1.899,6.046,3.622,9.428,5.166c0.528,2.273,1.261,6.321,1.256,11.204
		c0,3.552-0.382,7.511-1.456,11.569c-1.074,4.057-2.823,8.195-5.602,12.216c-2.179,3.152-1.394,7.466,1.754,9.642
		c3.148,2.175,7.462,1.394,9.638-1.749c3.782-5.469,6.178-11.151,7.608-16.567c1.434-5.424,1.913-10.582,1.913-15.111
		c0-2.264-0.124-4.359-0.311-6.276c6.677,1.554,13.992,2.459,22.044,2.45c3.823,0,6.926-3.107,6.926-6.934
		C322.123,325.644,319.02,322.537,315.197,322.537z"/>
        <path d="M409.302,218.468c-3.431-2.956-7.133-5.38-11.04-7.103c-3.902-1.722-8.026-2.752-12.248-2.752
		c-3.826,0-6.929,3.098-6.929,6.925c0,3.836,3.103,6.934,6.929,6.934c2.548-0.009,5.771,0.879,9.158,2.841
		c5.078,2.912,10.357,8.141,14.196,14.693c3.862,6.543,6.308,14.33,6.304,22.373c-0.031,8.852-2.819,18.085-10.365,27.266
		c-2.437,2.956-2.02,7.315,0.932,9.756c2.948,2.433,7.316,2.016,9.753-0.932c9.508-11.472,13.565-24.194,13.534-36.09
		c0-7.227-1.447-14.142-3.879-20.446C421.988,232.485,416.16,224.398,409.302,218.468z"/>
        <path d="M168.073,181.534v-0.009c4.759-5.638,11.538-10.059,19.266-13.033c7.715-2.983,16.327-4.475,24.384-4.466
		c7.848-0.018,15.155,1.429,20.514,3.924c3.476,1.598,7.59,0.089,9.198-3.391c1.602-3.472,0.084-7.582-3.387-9.19
		c-7.741-3.56-16.837-5.194-26.324-5.202c-9.739,0-19.901,1.758-29.365,5.388c-9.441,3.64-18.235,9.199-24.862,17.02
		c-2.473,2.921-2.109,7.297,0.812,9.766C161.228,184.819,165.601,184.446,168.073,181.534z"/>
        <polygon points="481.632,161.514 481.637,161.523 481.637,161.523 	"/>
        <polygon points="336.159,392.808 336.159,392.817 336.154,392.817 	"/>
        <path d="M492.215,208.417c-1.225-1.243-2.539-2.424-3.87-3.586c0.696-3.88,1.1-7.831,1.1-11.844
		c0.004-10.636-2.53-21.467-7.808-31.464c-6.033-11.462-14.969-20.554-25.401-26.715c-7.297-4.315-15.323-7.191-23.642-8.532
		c-2.019-7.182-5.185-14.019-9.438-20.224c-7.08-10.334-17.148-18.892-29.467-24.193c-8.811-3.791-18.058-5.611-27.14-5.611
		c0,0-0.28-0.009-0.79,0.036c-11.533,0.134-22.759,3.161-32.69,8.692c-3.884-4.679-8.376-8.843-13.375-12.35
		c-10.956-7.697-24.353-12.261-38.687-12.403c-0.165-0.009-0.364-0.017-0.608-0.026c-0.031,0-0.062,0-0.097,0h-0.009h-0.009h-0.004
		c-0.022,0-0.044,0-0.066,0c-0.133,0-0.293,0.009-0.497,0.017c-12.482,0.098-24.277,3.543-34.354,9.508
		c-4.368,2.575-8.354,5.673-12.012,9.118c-10.44-6.508-22.777-10.308-35.917-10.37l-0.048-0.008h-0.311c-0.009,0-0.014,0-0.022,0
		c-0.018,0-0.036,0-0.057,0c-0.16,0-0.36,0.008-0.613,0.026c-13.979,0.133-27.088,4.466-37.896,11.817
		c-6.264,4.253-11.746,9.518-16.279,15.545c-5.735-1.553-11.723-2.396-17.841-2.396c-5.091,0-10.254,0.577-15.394,1.749
		c-15.138,3.471-28.068,11.772-37.334,22.861h0.005c-6.503,7.768-11.195,16.93-13.77,26.812
		c-9.873,3.348-19.177,8.959-26.959,16.886c-0.004,0.009-0.013,0.018-0.022,0.027c-13.051,13.308-19.621,30.718-19.616,48.004v0.026
		v0.036c0,0,0,0.017,0,0.035v0.186h0.004c0.017,6.01,0.83,12.003,2.415,17.827C4.799,239.81,0.005,254.272,0,269.073
		c-0.004,10.955,2.638,22.097,8.128,32.369c6.17,11.533,15.244,20.668,25.8,26.856c7.404,4.341,15.532,7.21,23.952,8.559
		c4.484,12.048,12.172,22.444,22.009,30.141c11.701,9.172,26.462,14.596,42.278,14.596c1.643,0,3.281-0.052,4.918-0.177h0.04h0.022
		h0.005h0.004c6.982-0.506,13.672-2.077,19.904-4.501c4.142,6.64,9.348,12.508,15.395,17.348
		c11.697,9.366,26.572,14.96,42.517,15.031c0.058,0.009,0.106,0.009,0.156,0.009c0.054,0,0.106,0,0.156,0h0.009
		c0.005,0,0.005,0,0.005,0h0.013h0.071c0.023,0,0.032,0,0.054,0l0.173-0.009h0.049c1.274-0.009,2.553-0.062,3.826-0.142h0.018
		l0.75-0.018c5.708-0.418,11.222-1.528,16.447-3.249c6.583,9.775,15.75,18.022,27.092,23.492h-0.005
		c9.57,4.616,19.78,6.827,29.8,6.827c9.756,0,19.3-2.121,28.054-6.046c12.722,13.512,30.661,21.627,49.957,21.646
		c4.231,0,8.51-0.391,12.79-1.199c16.438-3.089,30.523-11.888,40.378-23.9h-0.004c6.436-7.821,11.067-17.054,13.544-27.016
		c11.368-1.118,22.648-5.078,32.618-12.092c9.487-6.659,16.838-15.36,21.765-25.072c4.928-9.704,7.467-20.412,7.467-31.216
		c0-7.2-1.172-14.428-3.476-21.397c5.917-4.82,11.15-10.698,15.323-17.578c6.748-11.098,9.997-23.474,9.997-35.638
		C511.996,238.914,505.102,221.468,492.215,208.417z M481.277,279.744c-6.965,11.47-18.192,18.609-30.457,20.731
		c-3.773,0.648-6.303,4.235-5.656,7.998c0.648,3.774,4.231,6.304,8,5.656c2.819-0.479,5.594-1.181,8.315-2.068
		c2.964,6.126,4.426,12.696,4.426,19.248c0.004,7.005-1.651,13.965-4.838,20.242c-3.192,6.278-7.898,11.861-14.077,16.212
		c-7.781,5.451-16.615,8.053-25.418,8.061c-0.688,0-1.376-0.053-2.064-0.088c-0.146-1.154-0.289-2.299-0.502-3.445v-0.009
		c-1.518-8.035-4.643-15.386-8.936-21.769l-0.524-0.782l-0.71-0.613c-5.252-4.492-12.217-11.879-17.593-19.407
		c-2.694-3.756-4.998-7.556-6.547-10.938c-1.568-3.383-2.286-6.34-2.26-8.088c0-0.781,0.116-1.305,0.245-1.66
		c0.137-0.346,0.266-0.551,0.537-0.834c2.703-2.699,2.703-7.094,0-9.793c-2.708-2.707-7.094-2.707-9.798,0v-0.008
		c-1.686,1.686-2.96,3.719-3.742,5.85c-0.781,2.131-1.096,4.324-1.096,6.446c0.026,4.803,1.478,9.348,3.52,13.858
		c3.095,6.73,7.711,13.415,12.696,19.514c4.692,5.736,9.686,10.876,14.156,14.818c3.076,4.741,5.323,10.086,6.433,15.972
		c0.466,2.477,0.723,4.936,0.759,7.306l0.004,0.036c0.005,0.32,0.009,0.631,0.009,0.95c0,10.477-3.725,20.375-10.13,28.179
		c-6.415,7.796-15.44,13.442-26.124,15.457c-2.796,0.525-5.571,0.782-8.301,0.782c-14.693,0.009-28.286-7.36-36.453-19.115
		c4.395-4.457,8.141-9.695,11.008-15.625c3.556-7.351,5.42-15.129,5.762-22.817c0.169-3.836-2.796-7.067-6.614-7.236
		c-3.826-0.168-7.063,2.796-7.232,6.615c-0.262,5.886-1.673,11.781-4.394,17.4l-0.004,0.018c-2.904,6.019-6.97,11.053-11.804,15.04
		l-0.026,0.017c-7.941,6.517-17.992,10.104-28.259,10.104c-6.472,0-13.029-1.421-19.266-4.422
		c-11.551-5.576-19.572-15.43-23.119-26.758l-0.005-0.009c-1.354-4.298-2.055-8.799-2.055-13.335c0-6.472,1.421-13.024,4.434-19.292
		c1.665-3.445,0.214-7.582-3.232-9.242c-3.444-1.66-7.586-0.213-9.246,3.232c-3.934,8.15-5.811,16.806-5.811,25.303
		c0,4.119,0.471,8.195,1.323,12.19c-5.411,2.956-11.515,4.838-18.112,5.328h-0.013c-1.074,0.071-2.14,0.106-3.187,0.106
		c-10.401,0-20.038-3.605-27.7-9.73c-6.668-5.328-11.777-12.545-14.507-20.9c4.878-4.812,8.918-10.44,11.87-16.682
		c1.633-3.454,0.155-7.591-3.303-9.225c-3.458-1.634-7.591-0.16-9.225,3.303c-2.743,5.806-6.72,10.956-11.617,15.084
		c-6.934,5.85-15.692,9.624-25.444,10.325h-0.014c-1.07,0.071-2.135,0.115-3.187,0.115c-22,0.009-40.777-16.22-43.947-37.971
		l-0.008-0.054l-0.009-0.054c-0.169-1.029-0.289-2.113-0.369-3.231c-0.075-1.084-0.114-2.149-0.114-3.214
		c0-2.806,0.262-5.549,0.758-8.221c0.693-3.765-1.793-7.378-5.557-8.08c-3.76-0.693-7.373,1.794-8.07,5.558
		c-0.644,3.48-0.986,7.076-0.986,10.743l0.014,0.399c-6.228-0.693-12.274-2.672-17.69-5.85c-6.832-4.005-12.66-9.855-16.682-17.366
		c-3.578-6.694-5.26-13.85-5.265-20.926c0-9.127,2.833-18.093,8.075-25.586c2.006,2.841,4.293,5.54,6.854,8.052
		c5.838,5.736,12.611,9.989,19.79,12.758c3.565,1.386,7.578-0.39,8.958-3.959c1.381-3.569-0.394-7.582-3.959-8.959
		c-5.478-2.122-10.618-5.344-15.08-9.73l-0.009-0.008c-3.924-3.845-6.974-8.23-9.172-12.927c-2.783-5.948-4.181-12.403-4.181-18.866
		c0.004-11.249,4.208-22.426,12.691-31.1c7.213-7.342,16.292-11.64,25.728-12.927h0.009h0.009l0.026-0.009
		c1.994-0.266,4-0.408,6.015-0.399c11.245,0.009,22.444,4.218,31.114,12.696c2.734,2.672,7.12,2.628,9.797-0.106
		c2.677-2.734,2.628-7.12-0.106-9.793c-11.032-10.805-25.338-16.327-39.668-16.602c1.634-6.632,4.75-12.793,9.1-17.987
		c6.019-7.191,14.299-12.518,24.157-14.791c3.348-0.764,6.686-1.136,9.97-1.136c5.806,0,11.449,1.154,16.664,3.267
		c-1.483,5.158-2.299,10.601-2.299,16.22c0,3.826,3.103,6.925,6.929,6.925c3.826,0,6.925-3.098,6.925-6.925
		c0-6.064,1.221-11.852,3.401-17.108c3.346-8.026,9.002-14.88,16.118-19.719c7.13-4.838,15.684-7.644,24.961-7.653
		c13.348,0.009,25.272,5.851,33.444,15.164l0.014,0.009c6.871,7.821,11.013,18.049,11.018,29.306c0,3.826,3.098,6.925,6.929,6.925
		c3.827,0,6.925-3.098,6.925-6.925c0.005-12.793-4.133-24.672-11.142-34.288c3.587-4.971,8.159-9.18,13.45-12.305
		c6.623-3.915,14.312-6.152,22.586-6.152c9.504,0,18.249,2.965,25.472,8.035c7.222,5.06,12.878,12.225,16.069,20.579l-0.004-0.008
		c1.883,4.945,2.917,10.263,2.921,15.874c0,3.826,3.099,6.926,6.926,6.926c3.826,0,6.929-3.099,6.929-6.926
		c0-5.718-0.857-11.24-2.393-16.46c8.203-7.644,19.092-11.968,30.328-11.968c5.868,0,11.817,1.172,17.57,3.64
		c8.022,3.454,14.463,8.949,19.057,15.643c4.59,6.685,7.298,14.56,7.756,22.692c0.044,0.835,0.071,1.678,0.071,2.521
		c-0.005,5.868-1.164,11.809-3.631,17.562c-1.51,3.516,0.111,7.59,3.626,9.099c3.516,1.518,7.59-0.115,9.1-3.631
		c2.57-5.966,4.048-12.154,4.549-18.315c6.792,0.453,13.407,2.512,19.266,5.975c6.689,3.96,12.38,9.73,16.282,17.135v0.008
		c3.414,6.464,5.012,13.353,5.016,20.163c0,3.125-0.36,6.214-1.021,9.242c-4.182-1.616-8.475-2.726-12.803-3.338
		c-3.787-0.533-7.288,2.105-7.821,5.904c-0.533,3.783,2.104,7.289,5.895,7.822c4.346,0.613,8.63,1.865,12.74,3.8
		c0.728,1.181,1.802,2.166,3.174,2.752c0.857,0.364,1.745,0.542,2.624,0.55c2.556,1.705,4.883,3.614,6.96,5.727l-0.093-0.097
		l0.111,0.115c8.296,8.381,12.788,19.701,12.784,31.233C487.749,264.571,485.672,272.518,481.277,279.744z"/>
    </symbol>
    <symbol id="chartIcon" viewBox="0 0 32 32" stroke="currentColor" fill="currentColor">
        <path d="M8.502 9.999h-7.002c-0.552 0-1 0.447-1 1v20.001c0 0.552 0.448 1 1 1h7.002c0.553 0 1-0.448 1-1v-20c0-0.553-0.447-1-1-1zM7.502 30h-5.002v-18h5.002v18zM19.492 15.945h-7.003c-0.553 0-1 0.448-1 1v14.055c0 0.552 0.447 1 1 1h7.003c0.552 0 1-0.448 1-1v-14.055c0-0.553-0.447-1-1-1zM18.492 30h-5.003v-12.055h5.003v12.055zM30.5 0h-6.992c-0.552 0-1 0.448-1 1v30c0 0.552 0.448 1 1 1h6.992c0.552 0 1-0.448 1-1v-30c0-0.552-0.448-1-1-1zM29.5 30h-4.992v-28h4.992v28z"/>
    </symbol>
    <symbol id="gameIcon" viewBox="0 0 192 192" stroke="currentColor" fill="none" stroke-width="10">
        <circle cx="53.5" cy="53.5" r="31.5"/>
        <circle cx="53.5" cy="138.5" r="31.5"/>
        <circle cx="138.5" cy="138.5" r="31.5"/>
        <path d="m113 28 25.5 25.5M164 79l-25.5-25.5m0 0L164 28m-25.5 25.5L113 79"/>
    </symbol>
    <symbol id="diceIcon" viewBox="0 0 512 512" stroke="currentColor" fill="currentColor">
        <path d="M79.842,271.618H61.877c-9.881,0-17.965,8.084-17.965,17.965v17.965c0,9.881,8.084,17.965,17.965,17.965h17.965
				c9.881,0,17.965-8.084,17.965-17.965v-17.965C97.807,279.702,89.723,271.618,79.842,271.618z M79.842,307.547H61.877v-17.965
				h17.965V307.547z"/>
        <path d="M205.596,271.618h-17.965c-9.881,0-17.965,8.084-17.965,17.965v17.965c0,9.881,8.084,17.965,17.965,17.965h17.965
				c9.881,0,17.965-8.084,17.965-17.965v-17.965C223.561,279.702,215.477,271.618,205.596,271.618z M205.596,307.547h-17.965
				v-17.965h17.965V307.547z"/>
        <path d="M332.249,73.105c-3.593-3.593-8.084-5.389-12.575-5.389s-8.982,1.797-12.575,5.389l-12.575,12.575
				c-7.186,7.186-7.186,17.965,0,25.151l12.575,12.575c3.593,3.593,8.084,5.389,12.575,5.389s8.982-1.797,12.575-5.389
				l12.575-12.575c3.593-3.593,5.389-8.084,5.389-12.575s-1.796-8.982-5.389-12.575L332.249,73.105z M319.674,110.832
				l-12.575-12.575l12.575-12.575l12.575,12.575L319.674,110.832z"/>
        <path d="M307.098,212.333c3.593,3.593,8.084,5.389,12.575,5.389s8.982-1.797,11.677-5.389l12.576-12.575
				c3.593-3.593,5.389-8.084,5.389-12.575s-1.796-8.982-5.389-12.575l-12.576-12.575c-3.593-3.593-8.084-5.389-12.575-5.389
				s-8.982,1.797-12.575,5.389l-12.575,12.575c-7.186,7.186-7.186,17.965,0,25.151L307.098,212.333z M319.674,174.607l12.575,12.575
				l-12.575,12.575l-12.575-12.575L319.674,174.607z"/>
        <path d="M332.249,264.432c-3.593-3.593-8.084-5.389-12.575-5.389s-8.982,1.797-12.575,5.389l-12.575,12.575
				c-7.186,7.186-7.186,17.965,0,25.151l12.575,12.575c3.593,3.593,8.084,5.389,12.575,5.389s8.982-2.695,12.575-5.389
				l12.575-12.575c7.186-7.186,7.186-17.965,0-25.151L332.249,264.432z M319.674,301.26l-12.575-12.575l12.575-12.575l12.575,12.575
				L319.674,301.26z"/>
        <path d="M205.596,397.372h-17.965c-9.881,0-17.965,8.084-17.965,17.965v17.965c0,9.881,8.084,17.965,17.965,17.965h17.965
				c9.881,0,17.965-8.084,17.965-17.965v-17.965C223.561,405.456,215.477,397.372,205.596,397.372z M205.596,433.302h-17.965
				v-17.965h17.965V433.302z"/>
        <path d="M79.842,397.372H61.877c-9.881,0-17.965,8.084-17.965,17.965v17.965c0,9.881,8.084,17.965,17.965,17.965h17.965
				c9.881,0,17.965-8.084,17.965-17.965v-17.965C97.807,405.456,89.723,397.372,79.842,397.372z M79.842,433.302H61.877v-17.965
				h17.965V433.302z"/>
        <path d="M142.719,334.495h-17.965c-9.881,0-17.965,8.084-17.965,17.965v17.965c0,9.881,8.084,17.965,17.965,17.965h17.965
				c9.881,0,17.965-8.084,17.965-17.965V352.46C160.684,342.579,152.6,334.495,142.719,334.495z M142.719,370.425h-17.965V352.46
				h17.965V370.425z"/>
        <path d="M496.628,174.607l-158.99-158.99c-9.881-10.779-26.947-10.779-37.726,0L141.821,175.505
				c-5.389,4.491-8.084,11.677-8.084,18.863s2.695,13.474,8.084,18.863l13.474,13.474H25.947C10.677,226.705-1,238.382-1,253.653
				v215.579c0,15.27,11.677,26.947,26.947,26.947h215.579c15.27,0,26.947-11.677,26.947-26.947V339.563l32.337,31.759
				c5.389,5.39,11.677,8.084,18.863,8.084c6.288,0,13.474-2.695,18.863-8.084l158.091-158.989
				c5.389-4.491,8.084-11.677,8.084-18.863S502.018,179.997,496.628,174.607z M250.509,469.232c0,5.389-3.593,8.982-8.982,8.982
				H25.947c-5.389,0-8.982-3.593-8.982-8.982V253.653c0-5.389,3.593-8.982,8.982-8.982H173.26h68.267
				c5.389,0,8.982,3.593,8.982,8.982v68.267V469.232z M484.053,199.758L325.961,358.747c-3.593,3.593-8.982,3.593-12.575,0
				l-44.912-44.912v-60.182v0c0-3.34-0.559-6.509-1.592-9.421c-0.738-2.08-1.718-4.029-2.908-5.816
				c-0.476-0.715-0.986-1.404-1.528-2.065c-0.542-0.661-1.116-1.294-1.719-1.898s-1.237-1.177-1.898-1.719
				c-4.628-3.793-10.621-6.028-17.302-6.028h-60.182l-26.947-26.947c-1.797-1.797-2.695-3.593-2.695-6.288s0.898-4.491,2.695-6.288
				l158.99-158.091c3.593-3.593,8.982-3.593,12.575,0l158.091,158.091c1.797,1.796,2.695,3.593,2.695,6.288
				S485.849,197.961,484.053,199.758z"/>
    </symbol>
</svg>